<?xml version="1.0" standalone="no"?>
<!DOCTYPE svg PUBLIC "-//W3C//DTD SVG 20010904//EN"
 "http://www.w3.org/TR/2001/REC-SVG-20010904/DTD/svg10.dtd">
<svg version="1.0" xmlns="http://www.w3.org/2000/svg"
 width="520.000000pt" height="520.000000pt" viewBox="0 0 520.000000 520.000000"
 preserveAspectRatio="xMidYMid meet">
<metadata>
Created by potrace 1.14, written by Peter Selinger 2001-2017
</metadata>
<g transform="translate(0.000000,520.000000) scale(0.100000,-0.100000)"
fill="#000000" stroke="none">
<path d="M2408 5195 c-2 -2 -32 -6 -68 -9 -79 -7 -137 -14 -170 -21 -14 -3
-38 -8 -55 -11 -225 -38 -547 -153 -745 -264 -14 -8 -27 -15 -30 -15 -14 -3
-153 -91 -248 -157 -144 -100 -388 -327 -497 -463 -22 -28 -44 -55 -50 -61 -5
-6 -17 -22 -25 -34 -8 -12 -20 -28 -25 -34 -31 -34 -164 -253 -215 -354 -113
-225 -182 -424 -230 -666 -12 -60 -24 -126 -26 -145 -2 -20 -7 -67 -11 -106
-15 -132 -8 -494 11 -605 4 -22 18 -122 18 -127 0 -4 38 -165 43 -186 3 -9 7
-25 9 -35 25 -105 138 -392 199 -502 17 -30 41 -75 55 -100 94 -170 286 -415
444 -565 173 -165 268 -239 475 -368 72 -46 273 -144 380 -186 93 -37 275 -95
327 -105 12 -2 50 -11 86 -19 36 -8 88 -18 115 -22 28 -5 57 -9 65 -10 156
-26 584 -26 705 -1 11 2 45 7 75 11 30 4 64 9 75 12 11 2 31 6 45 9 144 29
413 117 528 173 9 4 39 19 67 32 27 13 66 33 85 45 19 12 37 21 40 21 16 -2
285 179 375 251 99 80 312 293 387 388 220 278 375 573 471 899 33 111 56 209
62 262 2 12 6 36 10 53 20 92 30 228 30 420 0 219 -9 322 -41 485 -89 455
-283 858 -577 1201 -349 405 -770 673 -1292 823 -61 17 -148 37 -250 55 -16 4
-52 9 -80 12 -27 3 -61 8 -75 11 -28 5 -466 13 -472 8z"/>
</g>
</svg>
