<?xml version="1.0" standalone="no"?>
<!DOCTYPE svg PUBLIC "-//W3C//DTD SVG 20010904//EN"
 "http://www.w3.org/TR/2001/REC-SVG-20010904/DTD/svg10.dtd">
<svg version="1.0" xmlns="http://www.w3.org/2000/svg"
 width="520.000000pt" height="520.000000pt" viewBox="0 0 520.000000 520.000000"
 preserveAspectRatio="xMidYMid meet">
<metadata>
Created by potrace 1.14, written by Peter Selinger 2001-2017
</metadata>
<g transform="translate(0.000000,520.000000) scale(0.100000,-0.100000)"
fill="#000000" stroke="none">
<path d="M3389 5043 c-5 -15 -15 -73 -22 -130 -27 -249 43 -481 195 -649 48
-52 158 -144 173 -144 4 0 19 -9 34 -19 38 -28 193 -86 286 -107 58 -14 118
-19 220 -18 123 0 151 3 230 27 113 35 215 78 215 92 0 24 -180 237 -299 355
-193 192 -404 344 -652 470 -111 57 -334 150 -358 150 -7 0 -16 -12 -22 -27z
m156 -398 c0 -14 -8 -21 -27 -23 -22 -3 -28 1 -28 17 0 10 6 22 13 24 23 10
42 2 42 -18z m5 -95 c0 -11 -7 -20 -15 -20 -15 0 -21 21 -8 33 12 13 23 7 23
-13z m109 -151 c10 -16 46 -50 80 -75 33 -24 61 -49 61 -54 0 -18 -39 -11 -79
14 -42 27 -115 121 -106 136 11 17 25 11 44 -21z m931 -174 c15 -19 -3 -45
-31 -45 -23 0 -32 15 -24 40 7 24 37 26 55 5z"/>
<path d="M2281 5009 c-26 -24 -39 -30 -60 -25 -14 3 -48 9 -75 12 -39 6 -48 4
-44 -7 2 -7 24 -18 49 -22 24 -5 54 -18 66 -30 l23 -20 42 42 c28 28 47 39 58
35 15 -7 202 -73 208 -74 2 0 -10 13 -25 30 -28 29 -156 90 -190 90 -10 0 -33
-14 -52 -31z"/>
<path d="M1584 4994 l-81 -35 1 -115 1 -114 -29 -24 c-27 -21 -29 -26 -23 -74
5 -45 2 -59 -25 -109 -42 -79 -86 -133 -109 -133 -12 0 -25 -13 -36 -36 -17
-34 -85 -86 -97 -73 -8 7 17 93 52 176 16 40 26 70 21 67 -16 -10 -78 -140
-90 -190 -21 -88 -36 -100 -84 -68 -21 14 -26 14 -53 0 -28 -14 -32 -14 -76
14 -31 20 -46 36 -46 51 0 11 -13 33 -30 49 -19 18 -32 41 -36 69 -6 38 -4 45
27 78 l34 37 -41 -32 c-52 -40 -202 -196 -280 -292 -69 -86 -149 -200 -219
-313 -50 -81 -50 -96 -2 -97 22 0 22 0 -7 -90 -13 -41 -29 -113 -36 -160 -6
-47 -17 -107 -25 -135 -8 -27 -19 -84 -25 -125 -21 -150 -66 -228 -175 -307
-28 -20 -29 -23 -14 -38 14 -15 27 -15 100 -7 46 6 86 9 88 6 8 -8 0 -315 -10
-409 -13 -116 -52 -271 -78 -306 -12 -16 -21 -35 -21 -44 0 -25 51 -17 94 15
22 17 45 30 51 30 6 0 25 13 42 29 l31 28 5 -36 c2 -20 0 -67 -4 -106 -13
-106 -56 -182 -163 -287 -78 -78 -87 -91 -82 -114 l7 -27 32 29 c131 117 195
196 221 271 13 37 36 57 36 31 0 -20 64 -151 101 -206 17 -26 59 -74 94 -107
l63 -60 -23 -117 c-13 -67 -32 -132 -44 -152 -26 -42 -62 -50 -209 -48 -106 2
-112 0 -91 -39 9 -17 17 -19 47 -15 20 3 103 8 185 12 129 5 147 4 147 -10 0
-25 68 -16 153 19 15 6 17 -1 17 -77 0 -59 -4 -90 -15 -104 -44 -58 5 -72 68
-19 22 19 44 35 48 35 10 0 84 -128 98 -169 6 -19 11 -69 11 -112 0 -42 3 -84
6 -93 10 -25 37 -18 59 16 30 47 50 56 74 34 17 -15 21 -31 21 -81 0 -105 -5
-117 -63 -150 -29 -15 -73 -45 -99 -65 -45 -36 -47 -38 -29 -54 17 -15 22 -13
87 39 38 30 77 55 87 55 20 0 21 -27 7 -135 -9 -66 -8 -71 13 -88 24 -21 23
-22 32 53 6 52 9 57 53 87 49 33 124 53 196 53 34 0 54 8 102 43 62 46 183
100 249 113 22 4 69 22 105 40 115 57 360 81 462 45 29 -10 72 -24 96 -31 48
-12 47 -30 -1 -30 -79 -1 -254 -60 -328 -111 -25 -17 -27 -17 -56 0 -81 50
-228 46 -307 -8 -67 -47 -109 -89 -102 -106 4 -10 20 -15 52 -15 26 0 82 -10
126 -22 68 -18 86 -29 132 -72 29 -28 71 -76 95 -108 l42 -56 99 5 c125 7 159
-5 263 -95 21 -19 44 -31 50 -29 7 2 44 10 82 17 94 17 189 -3 320 -65 97 -47
153 -55 103 -16 -33 26 -162 85 -218 100 -103 27 -140 29 -218 13 -58 -11 -77
-12 -80 -3 -2 6 -34 32 -71 56 -82 54 -147 70 -248 61 -40 -4 -73 -3 -73 1 0
13 -38 60 -103 129 l-57 61 37 25 c267 177 342 203 588 203 159 0 161 0 225
-31 36 -17 85 -39 110 -48 129 -47 210 -132 272 -286 29 -73 70 -201 66 -205
-2 -2 -29 -15 -61 -29 -31 -14 -67 -32 -80 -41 -22 -16 -21 -17 13 -10 19 4
59 15 90 25 30 9 75 23 100 30 45 13 45 13 18 22 -28 10 -59 63 -73 127 -6 29
-5 31 21 31 46 0 167 -42 206 -72 41 -31 58 -35 58 -13 0 15 -75 75 -94 75 -6
0 -24 7 -41 16 -16 9 -63 19 -102 22 -43 2 -73 9 -73 15 0 14 -60 134 -80 160
-49 66 -98 108 -161 140 -93 48 -71 57 69 27 138 -30 266 -93 338 -166 35 -36
66 -56 102 -68 48 -16 112 -64 178 -134 19 -20 26 -22 44 -12 l21 11 -26 30
c-32 39 -37 59 -33 139 l3 65 48 3 c44 3 47 5 47 30 0 25 41 82 58 82 4 0 16
13 25 30 l18 30 -69 0 c-111 0 -125 5 -146 56 -14 33 -15 48 -7 58 16 19 59 8
102 -25 61 -48 63 -46 133 111 21 48 123 136 200 174 41 20 77 36 80 36 3 0
14 -17 25 -38 11 -21 27 -45 36 -52 15 -13 20 -12 35 8 27 32 55 27 106 -20
72 -66 74 -76 26 -118 -31 -28 -40 -42 -35 -58 6 -26 32 -37 38 -17 3 8 7 21
9 29 3 7 17 19 33 26 24 11 101 94 125 135 13 21 -32 88 -100 150 -34 32 -62
64 -62 71 0 7 13 22 30 34 l29 21 15 -33 c8 -18 28 -49 43 -70 15 -20 42 -54
59 -77 44 -57 53 -41 47 80 -5 100 17 249 37 249 5 0 18 -17 29 -38 11 -20 31
-50 44 -67 l25 -29 20 32 c10 18 22 53 26 77 6 50 53 148 86 183 12 12 28 38
36 57 l14 35 -77 -1 -78 -1 43 -15 c48 -17 52 -27 19 -53 -29 -23 -84 -125
-95 -176 l-8 -38 -29 47 c-17 25 -37 46 -46 47 -38 1 -88 -112 -96 -217 -3
-40 -9 -70 -14 -68 -4 3 -22 31 -40 63 -18 31 -37 60 -42 64 -27 18 -93 -34
-165 -129 -31 -42 -62 -78 -68 -80 -13 -4 -24 49 -24 122 -1 50 -1 50 -19 28
-10 -12 -21 -40 -25 -63 -4 -26 -13 -43 -24 -46 -44 -13 -169 -78 -205 -107
-46 -37 -157 -173 -157 -193 0 -17 -8 -17 -40 1 -42 24 -103 19 -130 -10 -33
-35 -90 -34 -135 2 -26 21 -31 30 -23 40 6 7 15 13 20 13 31 0 311 152 393
214 17 13 45 31 62 40 45 23 227 206 294 296 67 89 119 189 148 285 74 240 74
240 109 188 79 -116 136 -171 165 -160 9 3 13 35 14 107 2 113 20 197 58 268
34 63 32 78 -5 51 -46 -35 -87 -145 -96 -258 -9 -126 -17 -123 -123 46 l-23
38 20 60 c70 207 98 438 87 705 -10 232 -45 452 -78 485 -6 7 -7 3 -4 -10 14
-48 46 -332 51 -455 5 -110 2 -171 -18 -325 -48 -380 -98 -494 -335 -772 -16
-18 -32 -33 -38 -33 -5 0 -7 25 -5 59 5 70 -13 242 -34 324 -15 58 -15 59 9
90 29 39 72 122 80 158 4 15 1 33 -7 44 -12 17 -14 15 -26 -21 -19 -59 -87
-157 -194 -281 -54 -62 -100 -113 -102 -113 -3 0 -3 8 0 18 16 53 36 241 36
343 0 141 -15 344 -35 454 -7 44 -19 119 -25 166 -13 96 -21 117 -37 97 -7 -9
-6 -41 3 -98 23 -147 17 -161 -33 -82 -76 120 -182 229 -375 384 -76 61 -140
120 -144 130 -7 25 2 117 27 262 10 60 16 113 13 118 -16 26 -29 -10 -46 -123
-9 -68 -24 -151 -32 -184 -8 -33 -20 -87 -26 -120 -16 -78 -53 -208 -76 -265
-43 -103 -179 -360 -238 -449 -17 -26 -42 -66 -56 -89 -14 -23 -30 -41 -36
-39 -14 3 -236 245 -305 332 -94 120 -164 245 -136 245 25 0 168 -40 196 -54
43 -23 94 -25 99 -5 2 11 -9 21 -30 29 -89 35 -199 198 -325 480 -20 43 -76
204 -86 245 -4 15 -5 13 -6 -7 -1 -34 43 -207 67 -262 65 -150 120 -255 189
-361 18 -27 29 -51 23 -53 -6 -2 -42 4 -81 13 -57 14 -72 22 -79 41 -10 27
-28 31 -36 10 -8 -22 23 -115 64 -188 74 -134 325 -420 450 -513 30 -22 63
-48 75 -58 27 -23 167 -91 173 -84 3 2 -30 26 -73 52 -89 55 -123 83 -123 101
0 14 72 154 99 194 17 23 58 99 161 296 37 71 95 232 121 337 6 26 14 47 18
47 6 0 92 -68 206 -162 65 -54 231 -223 259 -263 73 -107 96 -148 121 -210 28
-68 29 -76 33 -287 4 -232 -2 -297 -43 -433 -18 -61 -33 -89 -60 -115 -41 -39
-45 -60 -12 -60 24 0 61 36 231 224 59 66 81 84 91 76 21 -17 35 -93 41 -223
6 -108 4 -128 -14 -176 -30 -78 -10 -95 50 -43 18 16 40 33 50 38 9 5 44 42
77 82 68 81 76 75 41 -28 -68 -202 -257 -418 -520 -594 -100 -67 -377 -206
-470 -236 -36 -11 -74 -25 -85 -30 -11 -6 -54 -19 -95 -29 -41 -11 -88 -24
-105 -30 -16 -6 -86 -21 -155 -33 -143 -26 -300 -27 -347 -3 -15 8 -35 15 -43
15 -8 0 -28 7 -45 16 -50 26 -167 64 -220 70 -31 4 -74 0 -115 -9 -36 -9 -90
-19 -120 -22 -30 -4 -71 -11 -92 -17 -20 -6 -47 -8 -61 -5 -21 6 -25 15 -34
82 -12 84 -23 102 -71 122 -30 13 -37 12 -77 -8 -24 -12 -55 -37 -70 -55 l-26
-33 -42 19 c-53 24 -112 59 -145 87 l-27 22 30 1 c35 0 75 24 75 45 0 8 -18
19 -42 25 -24 7 -52 17 -63 24 -11 7 -38 19 -60 26 -55 17 -141 70 -200 124
l-50 45 24 19 24 19 -42 43 c-22 23 -41 47 -41 53 0 6 -6 18 -14 26 -20 23
-72 154 -96 239 -25 89 -25 90 2 66 49 -43 110 -75 156 -81 26 -3 55 -10 65
-15 18 -9 25 6 7 17 -17 10 -95 135 -124 195 -66 143 -110 399 -88 520 27 149
45 226 64 269 11 25 29 73 40 106 12 33 34 82 50 110 16 27 34 60 40 73 6 12
15 22 19 22 5 0 22 -26 39 -57 17 -32 36 -67 43 -78 126 -201 272 -373 385
-454 23 -17 42 -36 42 -41 0 -12 395 -274 428 -285 21 -6 23 -5 13 12 -5 11
-18 26 -27 34 -36 30 -218 331 -212 351 2 5 22 -5 44 -23 22 -19 99 -68 172
-109 126 -72 132 -77 147 -119 34 -101 9 -248 -52 -297 -16 -13 -22 -23 -16
-27 19 -12 61 11 115 60 l51 48 -6 -100 c-3 -57 -15 -129 -27 -168 -12 -38
-20 -73 -18 -79 4 -11 75 66 122 132 33 47 120 190 129 213 13 35 -15 5 -34
-37 -29 -62 -59 -103 -117 -165 l-54 -56 7 40 c10 56 21 214 17 253 -3 29 -22
48 -22 21 0 -16 -59 -89 -72 -89 -6 0 -8 16 -4 43 3 23 7 84 7 135 1 90 8 108
34 83 13 -13 237 -77 300 -86 65 -10 98 -22 90 -35 -3 -6 -17 -49 -31 -98 -14
-48 -27 -94 -30 -102 -8 -21 -37 41 -54 113 -7 31 -15 55 -18 53 -14 -14 65
-283 85 -290 10 -4 13 13 13 72 0 81 24 162 69 236 20 33 22 33 128 45 60 7
122 16 138 21 l30 8 -30 1 c-16 0 -73 -4 -125 -9 -62 -6 -117 -6 -160 1 -159
25 -392 98 -510 160 -158 84 -355 231 -366 275 -4 13 -10 24 -14 24 -5 0 -15
3 -24 6 -39 15 4 -102 84 -226 16 -25 47 -74 69 -110 22 -36 51 -80 65 -99 31
-42 26 -53 -12 -22 -15 12 -40 29 -55 39 -31 19 -167 114 -218 152 -51 38
-209 199 -254 259 -22 29 -59 76 -81 105 -59 72 -145 217 -183 306 -31 73 -91
330 -91 390 0 26 4 30 26 30 36 0 196 55 269 92 157 81 299 224 384 388 34 66
80 207 88 267 3 32 13 59 24 69 22 20 24 42 5 69 -7 11 -18 61 -24 110 -13
110 -48 220 -102 321 -22 41 -38 79 -35 83 2 5 25 14 49 20 25 6 48 16 52 23
5 7 2 9 -8 6 -8 -4 -40 -9 -70 -13 l-55 -7 -48 51 c-26 28 -55 51 -64 50 -9 0
-52 -16 -97 -35z m233 -826 c-9 -71 -52 -154 -110 -210 -44 -43 -77 -61 -77
-40 0 4 20 30 45 57 56 60 89 116 105 175 7 25 14 51 16 58 2 6 9 12 15 12 8
0 10 -15 6 -52z m-212 -289 c7 -22 -7 -39 -33 -39 -16 0 -26 25 -18 45 8 23
44 18 51 -6z m-977 -81 c-2 -25 -8 -33 -23 -33 -23 0 -32 30 -15 50 22 27 42
18 38 -17z m-48 -155 c141 -95 323 -153 484 -153 l84 0 6 -31 c3 -17 6 -43 6
-58 0 -14 11 -70 25 -124 14 -54 25 -112 25 -130 0 -17 5 -39 10 -47 6 -11 3
-22 -14 -40 -29 -31 -72 -108 -97 -175 -11 -27 -24 -59 -29 -70 -55 -118 -100
-330 -100 -473 0 -149 79 -404 158 -510 27 -36 25 -47 -8 -37 -21 7 -150 111
-180 146 -21 24 -140 121 -140 114 0 -19 39 -76 78 -114 31 -30 50 -59 59 -90
12 -45 47 -145 94 -266 13 -33 33 -77 46 -98 30 -47 11 -49 -43 -4 -21 18 -55
44 -74 59 -19 14 -46 36 -61 49 -33 31 -96 79 -104 79 -3 0 2 -12 12 -27 l17
-26 -64 -59 c-36 -32 -67 -58 -70 -58 -3 0 -5 49 -3 108 l2 109 -58 79 c-88
120 -159 254 -185 349 -11 41 -47 310 -45 339 10 158 -19 134 -35 -28 l-11
-111 -55 -32 c-64 -39 -75 -41 -65 -10 13 43 33 133 43 192 6 33 15 83 21 110
5 28 11 134 13 238 4 172 3 187 -13 187 -10 0 -21 -4 -24 -10 -7 -11 -98 -14
-108 -4 -3 4 5 15 18 26 31 25 71 92 80 138 4 19 14 44 21 55 7 11 22 88 33
170 18 136 62 353 77 377 3 5 34 -17 67 -49 34 -33 82 -73 107 -90z m185 117
c10 -11 23 -20 29 -20 7 0 30 -9 51 -21 50 -25 116 -39 223 -46 89 -5 104 -18
57 -49 -29 -19 -159 -25 -234 -11 -58 11 -150 53 -183 85 -26 24 -36 60 -21
75 14 14 61 6 78 -13z m155 -2237 c27 -27 61 -58 77 -71 19 -16 24 -25 15 -29
-7 -3 -27 -17 -44 -31 -18 -15 -33 -22 -35 -16 -2 6 -10 20 -18 30 -13 19 -15
18 -57 -4 -66 -34 -91 -25 -48 18 21 21 27 50 10 50 -5 0 -10 -4 -10 -8 0 -4
-15 -25 -33 -45 -29 -31 -38 -35 -62 -29 -16 5 -30 13 -32 19 -2 5 24 34 58
64 33 30 72 64 86 77 14 12 30 22 35 22 5 0 31 -21 58 -47z m201 -178 c29 -36
57 -65 62 -65 6 0 18 -7 27 -15 30 -27 127 -82 177 -101 26 -10 57 -23 67 -30
18 -13 18 -14 -8 -24 -15 -5 -39 -10 -53 -10 -26 0 -26 0 -8 -20 22 -24 163
-118 223 -149 23 -12 42 -24 42 -28 0 -3 -8 -30 -17 -60 -17 -55 -33 -65 -62
-39 -9 7 -51 32 -95 55 -74 38 -80 40 -92 24 -7 -10 -16 -26 -19 -35 -4 -10
-9 -18 -13 -18 -4 0 -36 27 -72 61 l-65 60 -35 -18 c-19 -9 -38 -19 -41 -21
-3 -1 -9 23 -12 54 -6 63 -36 130 -98 222 -42 63 -66 75 -89 47 -24 -29 -40
-18 -40 28 0 23 -4 57 -9 75 -9 30 0 44 14 22 10 -17 62 -11 110 12 25 12 45
26 45 30 0 15 8 8 61 -57z m3377 -158 c6 -7 8 -17 4 -23 -7 -12 -81 -39 -87
-32 -7 7 46 68 60 68 7 0 17 -6 23 -13z m82 -79 l35 -31 -30 -13 c-53 -23 -65
-19 -65 24 0 62 11 65 60 20z m-89 -31 c-7 -7 -15 -6 -26 3 -20 16 -19 28 3
32 21 5 38 -20 23 -35z m139 -29 c0 -7 -13 -29 -29 -48 -25 -29 -31 -32 -45
-21 -25 21 -19 34 27 57 23 12 43 22 45 23 1 0 2 -5 2 -11z m-2773 -77 c9 -12
24 -110 28 -175 0 -4 -45 -25 -100 -45 -55 -21 -111 -43 -123 -50 -13 -7 -26
-10 -28 -8 -8 8 57 167 88 215 49 80 103 105 135 63z m1670 -113 c31 -29 29
-41 -12 -72 -50 -39 -101 -33 -132 13 -13 19 -20 37 -17 40 12 12 90 40 113
40 14 1 35 -9 48 -21z m-2041 -58 c22 -14 55 -37 72 -52 30 -25 32 -30 26 -68
-8 -48 -1 -44 -122 -58 -70 -8 -105 -18 -139 -38 l-46 -27 6 113 c3 61 9 115
12 118 8 8 28 -25 35 -57 12 -57 54 -26 64 47 3 27 9 52 12 55 8 8 31 -2 80
-33z m1846 -10 c-3 -42 -10 -50 -23 -27 -13 23 -29 22 -29 -2 0 -31 -21 -36
-41 -10 l-17 24 -7 -28 c-4 -15 -11 -24 -16 -21 -5 3 -49 7 -96 10 -66 3 -93
0 -110 -11 -28 -19 -57 -19 -72 -1 -10 12 -3 16 41 25 152 29 248 51 293 64
70 21 81 18 77 -23z m374 -32 c13 -25 16 -60 15 -176 -1 -80 -3 -147 -4 -149
-2 -1 -19 8 -38 21 -19 13 -52 29 -74 36 -22 7 -53 27 -70 44 -16 17 -47 45
-68 61 l-39 30 80 82 c108 111 160 125 198 51z m-356 -32 c0 -2 -7 -6 -15 -10
-8 -3 -15 -1 -15 4 0 6 7 10 15 10 8 0 15 -2 15 -4z m86 -7 c3 -6 1 -16 -5
-22 -9 -9 -14 -8 -21 3 -9 15 -4 30 10 30 5 0 12 -5 16 -11z m-136 -19 c0 -5
-4 -10 -9 -10 -6 0 -13 5 -16 10 -3 6 1 10 9 10 9 0 16 -4 16 -10z m98 -26
c-4 -21 -18 -27 -38 -14 -12 7 -11 12 5 30 20 22 39 14 33 -16z m480 -19 c-14
-31 -28 -31 -51 0 l-18 25 40 0 c40 0 40 -1 29 -25z m-1800 -20 c29 -9 52 -21
52 -28 0 -7 -15 -21 -33 -30 -19 -10 -45 -29 -59 -42 l-26 -24 -63 20 c-35 11
-82 24 -104 28 l-40 7 40 27 c36 24 127 55 166 56 8 1 39 -6 67 -14z m1736 -7
c23 -32 20 -48 -9 -48 -22 0 -25 4 -25 35 0 40 12 45 34 13z"/>
<path d="M2670 4908 c1 -7 28 -26 62 -43 43 -21 92 -60 167 -135 168 -167 232
-264 337 -510 19 -47 38 -87 41 -90 3 -3 3 18 0 46 -6 52 -55 182 -103 269
-90 165 -249 343 -388 436 -58 38 -116 52 -116 27z"/>
<path d="M2301 3794 c0 -11 3 -14 6 -6 3 7 2 16 -1 19 -3 4 -6 -2 -5 -13z"/>
<path d="M5145 3060 c-3 -5 -1 -18 4 -27 9 -16 10 -14 11 10 0 28 -5 34 -15
17z"/>
<path d="M3320 2306 c-56 -16 -160 -66 -160 -78 0 -17 27 -19 56 -3 16 8 39
15 51 15 12 0 26 6 30 13 32 54 267 43 355 -17 56 -37 58 -38 58 -22 0 26 -99
84 -164 95 -77 14 -169 13 -226 -3z"/>
<path d="M3335 2220 c-83 -9 -105 -17 -143 -54 -28 -26 -82 -112 -82 -130 0
-3 19 -15 42 -26 l42 -20 36 34 c53 51 76 59 180 64 114 5 172 -14 263 -85 73
-57 88 -59 99 -13 15 67 -15 123 -91 172 -81 51 -211 73 -346 58z m123 -68 c2
-7 -6 -12 -17 -12 -21 0 -27 11 -14 24 9 9 26 2 31 -12z m105 -5 c20 -10 37
-19 37 -21 0 -5 -104 15 -110 20 -5 6 23 25 30 21 3 -2 22 -11 43 -20z"/>
<path d="M1770 2191 c-102 -21 -270 -136 -270 -184 0 -16 7 -13 43 20 44 40
146 106 184 117 47 15 183 32 195 25 7 -4 35 -10 61 -14 44 -7 49 -6 45 11 -2
13 -16 21 -43 26 -50 9 -169 8 -215 -1z"/>
<path d="M1799 2085 c-106 -26 -232 -96 -276 -155 -18 -23 -43 -93 -43 -119 0
-6 5 -11 11 -11 6 0 25 -11 43 -25 42 -32 74 -32 85 -2 11 28 111 121 155 144
36 19 208 24 319 9 l67 -9 0 32 c0 21 5 31 15 31 12 0 14 7 9 28 -10 40 -12
42 -71 68 -46 20 -69 24 -156 23 -56 0 -127 -7 -158 -14z m21 -79 c0 -19 -26
-27 -39 -12 -13 15 -4 26 21 26 10 0 18 -6 18 -14z m-80 -28 c0 -13 -99 -73
-106 -65 -3 2 14 21 36 41 40 36 70 46 70 24z"/>
<path d="M5131 2054 c0 -11 3 -14 6 -6 3 7 2 16 -1 19 -3 4 -6 -2 -5 -13z"/>
<path d="M5091 1952 c-19 -42 -42 -94 -52 -116 l-18 -39 20 19 c32 29 65 93
79 152 7 29 11 55 8 57 -2 2 -19 -31 -37 -73z"/>
<path d="M260 1770 c0 -23 56 -90 76 -90 22 0 16 23 -17 68 -33 45 -59 55 -59
22z"/>
<path d="M210 1742 c0 -26 59 -112 76 -112 19 0 18 14 -6 59 -32 64 -70 92
-70 53z"/>
<path d="M170 1692 c0 -11 7 -25 16 -33 8 -7 22 -25 30 -41 8 -15 21 -28 29
-28 20 0 19 7 -13 65 -28 52 -62 72 -62 37z"/>
<path d="M2876 1660 c-49 -24 -56 -25 -139 -15 -62 7 -73 5 -128 -20 -61 -27
-76 -28 -156 -8 -18 4 -23 1 -23 -16 0 -15 10 -23 40 -31 24 -6 40 -17 40 -26
0 -20 64 -187 97 -254 39 -77 120 -157 169 -166 47 -9 97 17 132 67 26 37 26
23 6 335 -5 71 -3 103 5 108 12 8 15 46 3 46 -4 0 -25 -9 -46 -20z m-6 -220
c2 -212 3 -202 -27 -228 -37 -33 -74 -23 -142 36 -51 45 -58 57 -102 173 -26
68 -44 127 -40 131 17 18 124 36 213 34 l97 -1 1 -145z"/>
<path d="M350 1640 c0 -15 5 -20 18 -18 9 2 17 10 17 18 0 8 -8 16 -17 18 -13
2 -18 -3 -18 -18z"/>
<path d="M310 1595 c0 -8 5 -15 10 -15 6 0 10 7 10 15 0 8 -4 15 -10 15 -5 0
-10 -7 -10 -15z"/>
<path d="M270 1555 c0 -8 5 -15 10 -15 6 0 10 7 10 15 0 8 -4 15 -10 15 -5 0
-10 -7 -10 -15z"/>
<path d="M235 1520 c3 -5 8 -10 11 -10 2 0 4 5 4 10 0 6 -5 10 -11 10 -5 0 -7
-4 -4 -10z"/>
<path d="M1837 1504 c-14 -14 -7 -35 11 -32 9 2 17 10 17 17 0 16 -18 25 -28
15z"/>
<path d="M3030 1205 c0 -8 7 -15 15 -15 8 0 15 7 15 15 0 8 -7 15 -15 15 -8 0
-15 -7 -15 -15z"/>
<path d="M2655 573 c-14 -21 -25 -43 -25 -50 0 -18 25 -16 41 3 12 15 14 14
19 -7 4 -15 13 -24 25 -24 17 0 19 6 16 50 -1 27 -5 53 -7 57 -12 19 -45 5
-69 -29z"/>
<path d="M2283 533 c-5 -12 2 -23 22 -37 76 -56 75 -55 18 -56 -64 0 -83 -7
-83 -30 0 -26 12 -28 130 -23 134 5 150 9 150 33 0 13 -20 29 -68 54 -38 19
-84 44 -103 55 -41 25 -58 26 -66 4z"/>
<path d="M1555 448 c-58 -16 -92 -43 -115 -95 -25 -58 -25 -67 3 -80 22 -10
24 -7 40 38 25 68 52 84 147 84 107 0 166 -19 195 -64 27 -41 48 -134 43 -188
-2 -30 1 -38 16 -41 10 -2 22 2 27 10 22 34 2 176 -34 241 -28 50 -66 72 -161
91 -88 18 -104 18 -161 4z"/>
<path d="M2990 410 c-14 -4 -54 -9 -90 -9 -90 -2 -110 -8 -110 -37 0 -13 1
-24 3 -24 1 0 54 -18 117 -40 63 -22 118 -40 123 -40 4 0 7 11 7 24 0 20 -9
28 -46 42 l-46 18 63 15 c52 13 64 20 64 36 0 15 -7 20 -30 22 -16 1 -41 -2
-55 -7z"/>
<path d="M1554 276 c-30 -23 -7 -52 39 -48 31 3 39 0 48 -21 9 -20 46 -47 64
-47 10 0 5 31 -11 68 -22 58 -94 82 -140 48z"/>
</g>
</svg>
